<?xml version="1.0" encoding="UTF-8"?>
<svg xmlns="http://www.w3.org/2000/svg" xmlns:xlink="http://www.w3.org/1999/xlink" width="43px" height="43px" viewBox="0 0 43 43" version="1.1">
<g id="surface1">
<path style=" stroke:none;fill-rule:nonzero;fill:rgb(0%,0%,0%);fill-opacity:1;" d="M 30.804688 3.375 C 28.117188 3.789062 26.433594 5.074219 25.875 7.117188 C 25.773438 7.535156 25.445312 8.035156 24.917969 8.605469 C 23.644531 9.992188 23.03125 11.765625 23.015625 13.980469 C 23.015625 15.082031 23.144531 15.511719 23.628906 15.882812 C 23.902344 16.109375 23.800781 16.125 21.785156 16.226562 C 18.710938 16.382812 11.308594 16.210938 8.933594 15.9375 C 6.519531 15.667969 5.875 15.394531 5.261719 14.453125 C 4.1875 12.75 3.972656 10.25 4.773438 8.476562 C 5.003906 7.976562 5.273438 7.503906 5.375 7.417969 C 5.730469 7.117188 5.574219 6.992188 5.132812 7.21875 C 3.34375 8.148438 2.300781 10.320312 2.488281 12.722656 C 2.574219 13.953125 2.886719 14.96875 3.632812 16.398438 C 3.917969 16.941406 4.144531 17.597656 4.144531 17.855469 C 4.144531 18.113281 3.929688 18.96875 3.660156 19.769531 C 2.703125 22.699219 2.660156 24.085938 3.488281 26.558594 C 4.675781 30.046875 4.53125 30.804688 2.5 31.949219 C 1.34375 32.59375 1.257812 32.835938 1.828125 33.964844 C 2.058594 34.4375 2.386719 35.378906 2.558594 36.09375 C 2.730469 36.796875 3.015625 37.597656 3.1875 37.855469 C 4.101562 39.210938 7.40625 39.640625 8.476562 38.527344 C 8.648438 38.355469 8.949219 38.167969 9.148438 38.109375 C 9.792969 37.96875 10.449219 37.453125 10.664062 36.953125 C 10.980469 36.179688 10.722656 35.78125 9.476562 35.222656 C 8.578125 34.808594 8.433594 34.695312 8.433594 34.378906 C 8.433594 33.652344 9.347656 32.4375 10.578125 31.535156 C 12.695312 29.976562 13.835938 28.617188 14.367188 27.03125 C 14.625 26.230469 14.507812 26.246094 15.9375 26.875 C 18.785156 28.132812 23.117188 29.148438 25.703125 29.164062 L 26.460938 29.164062 L 26.445312 32.121094 C 26.417969 35.066406 26.433594 35.109375 26.875 36.667969 C 27.675781 39.410156 27.804688 39.527344 30.304688 39.527344 C 32.136719 39.527344 32.621094 39.367188 33.195312 38.597656 C 33.363281 38.355469 33.78125 38.039062 34.109375 37.882812 C 34.496094 37.683594 34.765625 37.425781 34.894531 37.140625 C 35.179688 36.4375 34.867188 36.066406 33.335938 35.265625 L 32.019531 34.582031 L 32.019531 33.265625 C 32.019531 31.878906 32.234375 28.890625 32.394531 27.890625 C 32.449219 27.488281 32.734375 26.960938 33.207031 26.332031 C 34.121094 25.089844 34.523438 24.1875 34.722656 22.871094 C 34.921875 21.585938 34.835938 20.597656 34.292969 17.925781 C 33.609375 14.539062 33.695312 14.167969 35.523438 12.765625 L 36.523438 12.007812 L 36.566406 16.398438 C 36.582031 18.828125 36.539062 21.570312 36.46875 22.515625 C 36.339844 24.117188 36.339844 24.257812 36.609375 24.617188 C 36.9375 25.089844 36.9375 25.117188 36.652344 25.402344 C 36.339844 25.71875 36.453125 26.359375 36.824219 26.417969 C 37.082031 26.460938 37.140625 26.375 37.210938 25.859375 C 37.253906 25.515625 37.238281 25.144531 37.167969 25.015625 C 37.097656 24.886719 37.097656 24.703125 37.183594 24.574219 C 37.351562 24.300781 37.339844 23.628906 37.167969 23.515625 C 37.082031 23.472656 37.054688 23.101562 37.082031 22.6875 C 37.125 22.273438 37.195312 19.585938 37.253906 16.695312 L 37.339844 11.4375 L 38.339844 10.707031 C 38.882812 10.308594 39.367188 10.019531 39.425781 10.078125 C 39.597656 10.25 39.496094 12.308594 39.253906 13.652344 C 38.824219 16.109375 38.441406 19.527344 38.367188 21.65625 C 38.324219 22.828125 38.195312 24.886719 38.066406 26.21875 C 37.769531 29.5625 37.898438 30.464844 38.8125 31.019531 C 39.554688 31.476562 40.355469 31.40625 40.984375 30.820312 C 41.484375 30.363281 41.511719 30.277344 41.570312 29.363281 C 41.613281 28.476562 41.570312 28.289062 41.183594 27.546875 C 40.957031 27.105469 40.457031 26.332031 40.082031 25.859375 C 39.3125 24.859375 39.167969 24.417969 39.355469 23.746094 C 39.453125 23.328125 39.441406 23.214844 39.226562 23.058594 C 39.011719 22.902344 38.996094 22.699219 39.070312 21.058594 C 39.167969 19.054688 39.453125 16.726562 39.898438 14.082031 C 40.097656 12.921875 40.183594 11.878906 40.15625 10.863281 C 40.125 9.578125 40.15625 9.277344 40.425781 8.71875 C 40.597656 8.363281 40.742188 7.875 40.742188 7.621094 C 40.742188 7.148438 40.269531 4.988281 40.097656 4.71875 C 39.96875 4.503906 39.65625 4.546875 38.597656 4.917969 C 37.351562 5.375 36.039062 5.53125 35.582031 5.289062 C 35.394531 5.1875 34.996094 4.832031 34.707031 4.503906 C 34.410156 4.160156 33.921875 3.789062 33.609375 3.660156 C 33.007812 3.429688 31.507812 3.273438 30.804688 3.375 Z M 37.167969 24 C 37.167969 24.171875 36.609375 24.300781 36.523438 24.160156 C 36.4375 24.015625 36.539062 23.945312 36.882812 23.914062 C 37.039062 23.902344 37.167969 23.945312 37.167969 24 Z M 40.640625 28.019531 C 41.328125 29.546875 40.640625 30.976562 39.410156 30.5625 C 38.710938 30.304688 38.539062 29.75 38.652344 27.933594 C 38.695312 27.0625 38.78125 26.144531 38.824219 25.902344 L 38.910156 25.460938 L 39.640625 26.417969 C 40.027344 26.945312 40.484375 27.660156 40.640625 28.019531 Z M 36.839844 26.046875 C 36.796875 26.144531 36.765625 26.074219 36.765625 25.875 C 36.765625 25.675781 36.796875 25.601562 36.839844 25.6875 C 36.867188 25.789062 36.867188 25.960938 36.839844 26.046875 Z M 36.839844 26.046875 "/>
</g>
</svg>
